<svg xmlns="http://www.w3.org/2000/svg" viewBox="0 0 128 128"><path fill="#3DDC84" d="M21.012 91.126c-4.092 0-7.412-3.32-7.412-7.412V46.199c0-4.092 3.32-7.412 7.412-7.412 4.093 0 7.412 3.32 7.412 7.412v37.515c0 4.092-3.32 7.412-7.412 7.412zm85.976 0c-4.092 0-7.412-3.32-7.412-7.412V46.199c0-4.092 3.32-7.412 7.412-7.412 4.093 0 7.412 3.32 7.412 7.412v37.515c0 4.092-3.32 7.412-7.412 7.412z"/><path fill="#3DDC84" d="M99.412 44.199c0-5.514-4.486-10-10-10H38.588c-5.514 0-10 4.486-10 10v46.801c0 5.514 4.486 10 10 10h4v18.588c0 4.092 3.32 7.412 7.412 7.412s7.412-3.32 7.412-7.412V101h13.176v18.588c0 4.092 3.32 7.412 7.412 7.412s7.412-3.32 7.412-7.412V101h4c5.514 0 10-4.486 10-10V44.199z"/><path fill="#3DDC84" d="M80.588 25.2l5.2-9.6c.4-.8.2-1.6-.6-2-.8-.4-1.6-.2-2 .6l-5.4 9.8c-4-1.8-8.4-2.8-13.2-2.8-4.8 0-9.2 1-13.2 2.8L46 14.2c-.4-.8-1.2-1-2-.6-.8.4-1 1.2-.6 2l5.2 9.6c-9.6 5-16 14.4-16 25h63.6c-.4-10.6-6.8-20-16-25z"/><circle fill="#fff" cx="46" cy="32.2" r="3.6"/><circle fill="#fff" cx="82" cy="32.2" r="3.6"/></svg>