<svg xmlns="http://www.w3.org/2000/svg" viewBox="0 0 128 128"><path fill="#659AD2" d="M115.4 30.7L67.1 2.9c-.8-.5-1.9-.7-3.1-.7-1.2 0-2.3.3-3.1.7l-48 27.9c-1.7 1-2.9 3.5-2.9 5.4v55.7c0 1.1.2 2.3.9 3.4.5.9 1.3 1.6 2.1 2.1l48.2 27.9c.8.5 1.9.7 3.1.7 1.2 0 2.3-.3 3.1-.7l48-27.9c1.7-1 2.9-3.5 2.9-5.4V36.1c0-1.1-.2-2.3-.9-3.4-.6-.9-1.3-1.6-2.1-2z"/><path fill="#fff" d="M64 88.5c23.8 0 28.5-17.5 28.5-24.5S87.8 39.5 64 39.5 35.5 57 35.5 64s4.7 24.5 28.5 24.5z" opacity=".1"/><path fill="#fff" d="M64 85.5c21.7 0 25.5-15.3 25.5-21.5S85.7 42.5 64 42.5 38.5 57.7 38.5 64s3.8 21.5 25.5 21.5z"/><path fill="#659AD2" d="M64 83.5c20.2 0 23.5-13.7 23.5-19.5S84.2 44.5 64 44.5 40.5 58.3 40.5 64s3.3 19.5 23.5 19.5z"/><path fill="#fff" d="M100.5 57h-4v-4h-4v4h-4v4h4v4h4v-4h4zm15 0h-4v-4h-4v4h-4v4h4v4h4v-4h4z"/></svg>