<svg xmlns="http://www.w3.org/2000/svg" viewBox="0 0 128 128"><path fill="#333" d="M64.094 126.224c4.29.07 8.562-7.165 11.07-9.981 2.508-2.814 5.903-6.86 8.996-7.471 3.094-.611 7.38.685 10.477.452 3.094-.233 6.15-.986 7.47-3.262 1.32-2.277.723-6.14.225-8.42-.497-2.278-1.32-4.092-1.553-6.6-.233-2.508.072-5.601-.685-8.345-.755-2.743-2.742-5.603-3.496-8.577-.755-2.974-.453-6.524-1.553-9.267-1.1-2.743-3.728-4.806-5.36-7.778-1.633-2.974-1.946-7.07-3.958-9.35-2.012-2.277-5.34-2.05-7.936-3.496-2.598-1.448-4.841-4.31-7.664-5.452-2.822-1.14-6.418-.904-9.113-1.597-2.696-.69-5.158-2.144-6.946-1.872-1.787.273-3.09 2.36-4.736 4.317-1.646 1.96-3.865 4.136-4.52 6.833-.657 2.696.343 6.272-.452 8.926-.793 2.653-3.235 4.835-4.515 7.435-1.282 2.6-1.97 5.72-2.423 8.805-.453 3.087-.677 6.517.22 8.926.898 2.41 3.358 3.54 4.88 5.714 1.523 2.175 2.47 5.78 4.404 7.435 1.934 1.654 5.15.998 7.208 2.175 2.06 1.176 3.375 4.177 5.716 5.528 2.34 1.35 6.048.748 8.32 1.647 2.274.898 3.727 3.548 5.944 3.88z"/><path fill="#E8C74B" d="M64.094 126.224c4.29.07 8.562-7.165 11.07-9.981 2.508-2.814 5.903-6.86 8.996-7.471 3.094-.611 7.38.685 10.477.452 3.094-.233 6.15-.986 7.47-3.262 1.32-2.277.723-6.14.225-8.42-.497-2.278-1.32-4.092-1.553-6.6-.233-2.508.072-5.601-.685-8.345-.755-2.743-2.742-5.603-3.496-8.577-.755-2.974-.453-6.524-1.553-9.267-1.1-2.743-3.728-4.806-5.36-7.778-1.633-2.974-1.946-7.07-3.958-9.35-2.012-2.277-5.34-2.05-7.936-3.496-2.598-1.448-4.841-4.31-7.664-5.452-2.822-1.14-6.418-.904-9.113-1.597-2.696-.69-5.158-2.144-6.946-1.872-1.787.273-3.09 2.36-4.736 4.317-1.646 1.96-3.865 4.136-4.52 6.833-.657 2.696.343 6.272-.452 8.926-.793 2.653-3.235 4.835-4.515 7.435-1.282 2.6-1.97 5.72-2.423 8.805-.453 3.087-.677 6.517.22 8.926.898 2.41 3.358 3.54 4.88 5.714 1.523 2.175 2.47 5.78 4.404 7.435 1.934 1.654 5.15.998 7.208 2.175 2.06 1.176 3.375 4.177 5.716 5.528 2.34 1.35 6.048.748 8.32 1.647 2.274.898 3.727 3.548 5.944 3.88z" opacity=".3"/></svg>